{
	"asset":{
		"generator":"Khronos glTF Blender I/O v4.0.44",
		"version":"2.0"
	},
	"extensionsUsed":[
		"KHR_materials_transmission",
		"KHR_materials_volume",
		"KHR_materials_specular",
		"KHR_materials_ior"
	],
	"scene":0,
	"scenes":[
		{
			"name":"Scene",
			"nodes":[
				1
			]
		}
	],
	"nodes":[
		{
			"mesh":0,
			"name":"Hedra023",
			"scale":[
				0.0010000000474974513,
				0.0010000000474974513,
				0.0010000000474974513
			]
		},
		{
			"children":[
				0
			],
			"name":"Node_1",
			"rotation":[
				-0.70710688829422,
				0,
				0,
				0.7071066498756409
			],
			"translation":[
				0.5615107417106628,
				0.5,
				0.17267674207687378
			]
		}
	],
	"materials":[
		{
			"doubleSided":false,
			"extensions":{
				"KHR_materials_transmission":{
					"transmissionFactor":1
				},
				"KHR_materials_volume":{
					"thicknessFactor":0.009999999776482582
				},
				"KHR_materials_specular":{
					"specularFactor":0.8999999761581421
				}
			},
			"name":"Material__1",
			"pbrMetallicRoughness":{
				"metallicFactor":0,
				"roughnessFactor":0.10000000149011612
			}
		},
		{
			"doubleSided":false,
			"extensions":{
				"KHR_materials_transmission":{
					"transmissionFactor":1
				},
				"KHR_materials_volume":{
					"thicknessFactor":1
				},
				"KHR_materials_specular":{
					"specularFactor":0.8999999761581421
				},
				"KHR_materials_ior":{
					"ior":2
				}
			},
			"name":"Material_2",
			"pbrMetallicRoughness":{
				"metallicFactor":0,
				"roughnessFactor":0.10000000149011612
			}
		}
	],
	"meshes":[
		{
			"name":"Hedra023",
			"primitives":[
				{
					"attributes":{
						"POSITION":0,
						"NORMAL":1,
						"TEXCOORD_0":2
					},
					"indices":3,
					"material":0
				},
				{
					"attributes":{
						"POSITION":4,
						"NORMAL":5,
						"TEXCOORD_0":6
					},
					"indices":7,
					"material":1
				}
			]
		}
	],
	"accessors":[
		{
			"bufferView":0,
			"componentType":5126,
			"count":2024,
			"max":[
				376.892822265625,
				428.73333740234375,
				491.0093688964844
			],
			"min":[
				-472.67388916015625,
				-449.01788330078125,
				-483.09930419921875
			],
			"type":"VEC3"
		},
		{
			"bufferView":1,
			"componentType":5126,
			"count":2024,
			"type":"VEC3"
		},
		{
			"bufferView":2,
			"componentType":5126,
			"count":2024,
			"type":"VEC2"
		},
		{
			"bufferView":3,
			"componentType":5123,
			"count":2088,
			"type":"SCALAR"
		},
		{
			"bufferView":4,
			"componentType":5126,
			"count":231434,
			"max":[
				401.7561340332031,
				428.73333740234375,
				491.0093688964844
			],
			"min":[
				-374.5434875488281,
				-354.4847106933594,
				-565.9480590820312
			],
			"type":"VEC3"
		},
		{
			"bufferView":5,
			"componentType":5126,
			"count":231434,
			"type":"VEC3"
		},
		{
			"bufferView":6,
			"componentType":5126,
			"count":231434,
			"type":"VEC2"
		},
		{
			"bufferView":7,
			"componentType":5125,
			"count":286407,
			"type":"SCALAR"
		}
	],
	"bufferViews":[
		{
			"buffer":0,
			"byteLength":24288,
			"byteOffset":0,
			"target":34962
		},
		{
			"buffer":0,
			"byteLength":24288,
			"byteOffset":24288,
			"target":34962
		},
		{
			"buffer":0,
			"byteLength":16192,
			"byteOffset":48576,
			"target":34962
		},
		{
			"buffer":0,
			"byteLength":4176,
			"byteOffset":64768,
			"target":34963
		},
		{
			"buffer":0,
			"byteLength":2777208,
			"byteOffset":68944,
			"target":34962
		},
		{
			"buffer":0,
			"byteLength":2777208,
			"byteOffset":2846152,
			"target":34962
		},
		{
			"buffer":0,
			"byteLength":1851472,
			"byteOffset":5623360,
			"target":34962
		},
		{
			"buffer":0,
			"byteLength":1145628,
			"byteOffset":7474832,
			"target":34963
		}
	],
	"buffers":[
		{
			"byteLength":8620460,
			"uri":"untitled2.bin"
		}
	]
}
